# 3ds Max Wavefront OBJ Exporter v0.97b - (c)2007 guruware
# File Created: 12.06.2018 23:41:30

mtllib TESTCLOTH.mtl

#
# object Plane017
#

v  -280.5898 105.8165 93.3014
v  -280.6042 109.0033 95.1498
v  -280.6042 104.9999 95.1498
v  -280.5898 101.8131 93.3014
v  -280.6042 98.7029 95.1498
v  -280.5898 96.7436 93.3014
v  -280.6042 93.9583 95.1498
v  -280.5898 92.1737 93.3014
v  -280.6042 89.9339 95.1498
v  -280.5898 87.6643 93.3014
v  -280.6042 85.2457 95.1498
v  -280.5898 83.2878 93.3014
v  -280.6042 81.4071 95.1498
v  -280.5898 79.3993 93.3014
v  -280.6042 78.1912 95.1498
v  -280.5898 75.7535 93.3014
v  -280.6029 75.1587 94.9809
v  -280.5898 72.0557 93.3014
v  -280.5821 104.8070 91.0050
v  -280.5821 100.8036 91.0050
v  -280.5821 96.0823 91.0050
v  -280.5821 91.3454 91.0050
v  -280.5821 87.0967 91.0050
v  -280.5821 82.4744 91.0050
v  -280.5821 78.0258 91.0050
v  -280.5821 73.8284 91.0050
v  -280.5821 69.1086 91.0050
v  -280.5793 104.5644 88.2351
v  -280.5793 100.5610 88.2351
v  -280.5793 95.8397 88.2351
v  -280.5793 91.0950 88.2351
v  -280.5793 86.8464 88.2351
v  -280.5793 82.0409 88.2351
v  -280.5793 77.4393 88.2351
v  -280.5793 72.7363 88.2351
v  -280.5793 66.0686 88.2351
v  -280.5898 105.8165 83.1687
v  -280.5898 101.8131 83.1687
v  -280.6042 104.9999 81.3204
v  -280.6042 109.0033 81.3204
v  -280.5898 96.7436 83.1687
v  -280.6042 98.7029 81.3204
v  -280.5898 92.1737 83.1687
v  -280.6042 93.9583 81.3204
v  -280.5898 87.6643 83.1687
v  -280.6042 89.9339 81.3204
v  -280.5898 83.2878 83.1687
v  -280.6042 85.2457 81.3204
v  -280.5898 79.3993 83.1687
v  -280.6042 81.4071 81.3204
v  -280.5898 75.7535 83.1687
v  -280.6042 78.1912 81.3204
v  -280.5898 72.0557 83.1687
v  -280.6029 75.1587 81.4892
v  -280.5821 104.8070 85.4651
v  -280.5821 100.8036 85.4651
v  -280.5821 96.0823 85.4651
v  -280.5821 91.3454 85.4651
v  -280.5821 87.0967 85.4651
v  -280.5821 82.4744 85.4651
v  -280.5821 78.0258 85.4651
v  -280.5821 73.8284 85.4651
v  -280.5821 69.1086 85.4651
# 63 vertices

vn 0.8509 -0.0000 0.5253
vn 0.7960 -0.0000 0.6053
vn 0.8853 -0.0000 0.4650
vn 0.7960 0.0000 0.6052
vn 0.7960 -0.0000 0.6052
vn 0.8853 0.0000 0.4650
vn 0.7961 0.0000 0.6052
vn 0.7967 0.0003 0.6044
vn 0.9322 0.0000 0.3619
vn 0.9746 -0.0000 0.2238
vn 0.9786 -0.0000 0.2056
vn 0.9786 0.0000 0.2056
vn 0.9905 -0.0000 0.1374
vn 1.0000 -0.0000 0.0000
vn 1.0000 -0.0000 -0.0000
vn 0.8509 -0.0000 -0.5253
vn 0.8853 -0.0000 -0.4650
vn 0.7960 -0.0000 -0.6053
vn 0.7960 0.0000 -0.6052
vn 0.7960 -0.0000 -0.6052
vn 0.8853 0.0000 -0.4650
vn 0.7961 0.0000 -0.6052
vn 0.9322 0.0000 -0.3619
vn 0.7967 0.0003 -0.6044
vn 0.9746 -0.0000 -0.2238
vn 0.9786 -0.0000 -0.2056
vn 0.9786 0.0000 -0.2056
vn 0.9905 -0.0000 -0.1374
# 28 vertex normals

vt 0.1414 0.9206 0.0783
vt 0.0098 0.9938 -0.5004
vt 0.0098 0.9018 -0.5004
vt 0.1414 0.8286 0.0783
vt 0.0098 0.7572 -0.5004
vt 0.1414 0.7121 0.0783
vt 0.0098 0.6481 -0.5004
vt 0.1414 0.6071 0.0783
vt 0.0098 0.5557 -0.5004
vt 0.1414 0.5035 0.0783
vt 0.0098 0.4480 -0.5004
vt 0.1414 0.4030 0.0783
vt 0.0098 0.3598 -0.5004
vt 0.1414 0.3136 0.0783
vt 0.0098 0.2859 -0.5004
vt 0.1414 0.2299 0.0783
vt 0.0218 0.2162 -0.4470
vt 0.1414 0.1449 0.0783
vt 0.3047 0.8974 0.3887
vt 0.3047 0.8054 0.3887
vt 0.3047 0.6969 0.3887
vt 0.3047 0.5881 0.3887
vt 0.3047 0.4905 0.3887
vt 0.3047 0.3843 0.3887
vt 0.3047 0.2821 0.3887
vt 0.3047 0.1856 0.3887
vt 0.3047 0.0772 0.3887
vt 0.5018 0.8918 0.4996
vt 0.5018 0.7998 0.4996
vt 0.5018 0.6914 0.4996
vt 0.5018 0.5824 0.4996
vt 0.5018 0.4847 0.4996
vt 0.5018 0.3743 0.4996
vt 0.5018 0.2686 0.4996
vt 0.5018 0.1605 0.4996
vt 0.5018 0.0074 0.4996
vt 0.8623 0.9206 0.0783
vt 0.8623 0.8286 0.0783
vt 0.9938 0.9018 -0.5004
vt 0.9938 0.9938 -0.5004
vt 0.8623 0.7121 0.0783
vt 0.9938 0.7572 -0.5004
vt 0.8623 0.6071 0.0783
vt 0.9938 0.6481 -0.5004
vt 0.8623 0.5035 0.0783
vt 0.9938 0.5557 -0.5004
vt 0.8623 0.4030 0.0783
vt 0.9938 0.4480 -0.5004
vt 0.8623 0.3136 0.0783
vt 0.9938 0.3598 -0.5004
vt 0.8623 0.2299 0.0783
vt 0.9938 0.2859 -0.5004
vt 0.8623 0.1449 0.0783
vt 0.9818 0.2162 -0.4470
vt 0.6989 0.8974 0.3887
vt 0.6989 0.8054 0.3887
vt 0.6989 0.6969 0.3887
vt 0.6989 0.5881 0.3887
vt 0.6989 0.4905 0.3887
vt 0.6989 0.3843 0.3887
vt 0.6989 0.2821 0.3887
vt 0.6989 0.1856 0.3887
vt 0.6989 0.0772 0.3887
# 63 texture coords

g Plane017
usemtl wire_088088225
s 1
f 1/1/1 2/2/2 3/3/2 4/4/3 
f 4/4/3 3/3/2 5/5/4 6/6/3 
f 6/6/3 5/5/4 7/7/4 8/8/3 
f 8/8/3 7/7/4 9/9/5 10/10/3 
f 10/10/3 9/9/5 11/11/4 12/12/6 
f 12/12/6 11/11/4 13/13/5 14/14/3 
f 14/14/3 13/13/5 15/15/7 16/16/3 
f 16/16/3 15/15/7 17/17/8 18/18/9 
f 19/19/10 1/1/1 4/4/3 20/20/11 
f 20/20/11 4/4/3 6/6/3 21/21/11 
f 21/21/11 6/6/3 8/8/3 22/22/12 
f 22/22/12 8/8/3 10/10/3 23/23/11 
f 23/23/11 10/10/3 12/12/6 24/24/11 
f 24/24/11 12/12/6 14/14/3 25/25/11 
f 25/25/11 14/14/3 16/16/3 26/26/11 
f 26/26/11 16/16/3 18/18/9 27/27/13 
f 28/28/14 19/19/10 20/20/11 29/29/15 
f 29/29/15 20/20/11 21/21/11 30/30/15 
f 30/30/15 21/21/11 22/22/12 31/31/15 
f 31/31/15 22/22/12 23/23/11 32/32/15 
f 32/32/15 23/23/11 24/24/11 33/33/15 
f 33/33/15 24/24/11 25/25/11 34/34/14 
f 34/34/14 25/25/11 26/26/11 35/35/14 
f 35/35/14 26/26/11 27/27/13 36/36/15 
f 37/37/16 38/38/17 39/39/18 40/40/18 
f 38/38/17 41/41/17 42/42/19 39/39/18 
f 41/41/17 43/43/17 44/44/19 42/42/19 
f 43/43/17 45/45/17 46/46/20 44/44/19 
f 45/45/17 47/47/21 48/48/19 46/46/20 
f 47/47/21 49/49/17 50/50/20 48/48/19 
f 49/49/17 51/51/17 52/52/22 50/50/20 
f 51/51/17 53/53/23 54/54/24 52/52/22 
f 55/55/25 56/56/26 38/38/17 37/37/16 
f 56/56/26 57/57/26 41/41/17 38/38/17 
f 57/57/26 58/58/27 43/43/17 41/41/17 
f 58/58/27 59/59/26 45/45/17 43/43/17 
f 59/59/26 60/60/26 47/47/21 45/45/17 
f 60/60/26 61/61/26 49/49/17 47/47/21 
f 61/61/26 62/62/26 51/51/17 49/49/17 
f 62/62/26 63/63/28 53/53/23 51/51/17 
f 28/28/14 29/29/15 56/56/26 55/55/25 
f 29/29/15 30/30/15 57/57/26 56/56/26 
f 30/30/15 31/31/15 58/58/27 57/57/26 
f 31/31/15 32/32/15 59/59/26 58/58/27 
f 32/32/15 33/33/15 60/60/26 59/59/26 
f 33/33/15 34/34/14 61/61/26 60/60/26 
f 34/34/14 35/35/14 62/62/26 61/61/26 
f 35/35/14 36/36/15 63/63/28 62/62/26 
# 48 polygons

